<svg width="51" height="80" viewBox="0 0 51 80" fill="none" xmlns="http://www.w3.org/2000/svg">
<path fill-rule="evenodd" clip-rule="evenodd" d="M46.1017 38.6504C45.6865 39.2751 44.9691 39.5412 44.2798 39.4323C43.9573 39.4162 43.6389 39.3114 43.3527 39.1179L26.6613 27.594C25.6295 27.9971 24.4283 27.9285 23.4125 27.3038C21.6874 26.2437 21.1513 23.9905 22.2073 22.2653C23.2674 20.5401 25.5206 20.0041 27.2458 21.0601C28.5598 21.8663 29.1846 23.3697 28.9387 24.8007L43.6792 34.9783C44.7998 32.9307 45.5696 30.7098 45.9485 28.4082C46.5128 24.982 46.1944 21.4874 45.0215 18.2426C43.8485 15.0019 41.8613 12.1158 39.2373 9.85862C36.6173 7.60139 33.4491 6.03746 30.023 5.31998C26.6009 4.60251 23.0336 4.74762 19.6518 5.74724C16.27 6.74687 13.1865 8.56475 10.6794 11.0356C8.17222 13.5065 6.33017 16.5457 5.31844 19.8791C4.50423 22.5676 4.25029 25.373 4.56469 28.1301C4.68965 29.2305 4.02054 30.2986 2.94029 30.5445C1.84796 30.7944 0.751591 30.1011 0.606483 28.9886C0.16713 25.5947 0.457345 22.1242 1.46504 18.8069C2.67023 14.8326 4.87103 11.2049 7.85782 8.25841C10.8446 5.31192 14.5247 3.14337 18.5595 1.9543C22.5903 0.761191 26.8467 0.587868 30.9299 1.44642C35.0131 2.30497 38.7899 4.16719 41.9178 6.85973C45.0456 9.55228 47.4157 12.9946 48.8144 16.8601C50.2131 20.7256 50.592 24.8974 49.9188 28.9806C49.3505 32.4309 48.0445 35.7281 46.0977 38.6584L46.1017 38.6504ZM32.1069 41.8629L19.7728 34.3213V34.3294C18.4668 33.5152 17.3543 32.4269 16.5199 31.137C15.6573 29.8028 15.1092 28.2913 14.9157 26.7153C14.7262 25.1392 14.8955 23.539 15.4155 22.0356C15.9355 20.5321 16.79 19.1697 17.9146 18.0491C19.0392 16.9286 20.4056 16.0781 21.905 15.5622C23.4085 15.0462 25.0087 14.881 26.5847 15.0744C28.1608 15.2679 29.6723 15.8201 31.0025 16.6867C32.0102 17.3397 32.8929 18.162 33.6184 19.1133C32.6631 20.8183 33.2194 22.9868 34.9002 24.0227C36.6254 25.0828 38.8786 24.5427 39.9387 22.8175C40.9988 21.0924 40.4586 18.8392 38.7335 17.7791C38.1974 17.4485 37.6089 17.2752 37.0244 17.243C36.5206 16.5255 35.9563 15.8564 35.3355 15.2478C34.6584 14.5786 33.9127 13.9821 33.1065 13.4581C31.2846 12.273 29.2168 11.5193 27.0604 11.2492C24.9039 10.9832 22.7152 11.2089 20.6595 11.9143C18.6038 12.6197 16.7336 13.7846 15.1978 15.3203C13.6581 16.856 12.4892 18.7223 11.7798 20.7739C11.0703 22.8296 10.8366 25.0183 11.0986 27.1748C11.3606 29.3312 12.1103 31.403 13.2913 33.229C13.8113 34.0351 14.4118 34.7808 15.0769 35.462C15.879 36.2843 16.7819 37.0058 17.7654 37.6145L17.7574 37.6306L18.5595 38.1223V38.1304L30.8896 45.6719V45.6639C32.1956 46.4781 33.3081 47.5664 34.1424 48.8562C35.005 50.1904 35.5532 51.702 35.7467 53.278C35.9361 54.854 35.7668 56.4542 35.2469 57.9577C34.7269 59.4572 33.8724 60.8236 32.7478 61.9441C31.6232 63.0647 30.2568 63.9192 28.7573 64.4311C27.2539 64.9471 25.6536 65.1123 24.0776 64.9188C22.5016 64.7254 20.99 64.1731 19.6599 63.3065C18.6764 62.6656 17.8098 61.8676 17.0923 60.9445C18.096 59.2314 17.5518 57.0185 15.8508 55.9746C14.1257 54.9145 11.8725 55.4546 10.8124 57.1798C9.75228 58.9049 10.2924 61.1581 12.0176 62.2182C12.5254 62.5286 13.0817 62.7019 13.6379 62.7503C14.1418 63.4678 14.7101 64.1409 15.3309 64.7536C16.008 65.4227 16.7537 66.0192 17.5599 66.5432C19.3818 67.7283 21.4496 68.482 23.606 68.7521C25.7625 69.0181 27.9512 68.7924 30.0069 68.087C32.0626 67.3816 33.9328 66.2167 35.4685 64.681C37.0083 63.1453 38.1772 61.2791 38.8866 59.2274C39.596 57.1717 39.8298 54.983 39.5678 52.8266C39.3058 50.6701 38.5561 48.5983 37.3751 46.7764C36.8551 45.9702 36.2545 45.2245 35.5895 44.5433C34.7873 43.7211 33.8845 42.9995 32.901 42.3909L32.909 42.3748L32.1069 41.883V41.875V41.8629ZM6.37853 40.5609C5.68927 40.4521 4.9718 40.7181 4.55663 41.3429C2.60977 44.2692 1.30784 47.5704 0.735468 51.0208C0.0623304 55.108 0.441222 59.2758 1.8399 63.1413C3.23857 67.0068 5.60866 70.449 8.73653 73.1416C11.8644 75.8341 15.6412 77.6963 19.7244 78.5549C23.8076 79.4135 28.06 79.2361 32.0948 78.047C36.1256 76.858 39.8056 74.6854 42.7965 71.7429C45.7833 68.7964 47.9841 65.1687 49.1893 61.1944C50.197 57.8771 50.4872 54.4066 50.0478 51.0127C49.9027 49.9002 48.8104 49.2069 47.714 49.4568C46.6338 49.7027 45.9647 50.7709 46.0896 51.8713C46.408 54.6283 46.1541 57.4337 45.3359 60.1222C44.3241 63.4557 42.4821 66.4949 39.9749 68.9657C37.4678 71.4366 34.3843 73.2544 31.0025 74.2541C27.6207 75.2537 24.0534 75.3988 20.6313 74.6813C17.2092 73.9639 14.041 72.3999 11.417 70.1427C8.79699 67.8814 6.8058 64.9994 5.63284 61.7587C4.45989 58.518 4.14146 55.0193 4.70577 51.5931C5.08466 49.2916 5.85454 47.0706 6.97509 45.023L22.2114 55.5433C22.1106 56.8694 22.7394 58.1996 23.9486 58.9412C25.6738 60.0013 27.927 59.4612 28.9871 57.736C30.0472 56.0109 29.5071 53.7577 27.7819 52.6976C26.6573 52.0083 25.303 51.9962 24.2066 52.5525L7.30561 40.8834C7.01943 40.6859 6.69696 40.5851 6.3745 40.569L6.37853 40.5609Z" fill="white"/>
</svg>
