<svg width="50" height="79" viewBox="0 0 50 79" fill="none" xmlns="http://www.w3.org/2000/svg">
<path fill-rule="evenodd" clip-rule="evenodd" d="M45.7389 38.3847C45.3237 39.0095 44.6063 39.2755 43.917 39.1667C43.5945 39.1506 43.2761 39.0458 42.9899 38.8523L26.2985 27.3284C25.2667 27.7314 24.0655 27.6629 23.0497 27.0381C21.3246 25.978 20.7885 23.7248 21.8445 21.9997C22.9046 20.2745 25.1578 19.7384 26.883 20.7945C28.197 21.6006 28.8218 23.1041 28.5759 24.535L43.3164 34.7127C44.437 32.6651 45.2068 30.4441 45.5857 28.1426C46.15 24.7164 45.8316 21.2217 44.6587 17.977C43.4857 14.7362 41.4985 11.8502 38.8745 9.593C36.2545 7.33577 33.0863 5.77183 29.6602 5.05436C26.2381 4.33688 22.6709 4.48199 19.289 5.48162C15.9072 6.48125 12.8237 8.29912 10.3166 10.77C7.80943 13.2408 5.96737 16.28 4.95565 19.6135C4.14144 22.302 3.8875 25.1074 4.2019 27.8644C4.32685 28.9648 3.65775 30.033 2.5775 30.2789C1.48517 30.5288 0.388798 29.8355 0.24369 28.723C-0.195663 25.3291 0.0945521 21.8586 1.10224 18.5413C2.30744 14.567 4.50824 10.9393 7.49503 7.99278C10.4818 5.0463 14.1619 2.87775 18.1967 1.68867C22.2275 0.495566 26.484 0.322243 30.5671 1.1808C34.6503 2.03935 38.4271 3.90156 41.555 6.59411C44.6828 9.28666 47.0529 12.7289 48.4516 16.5944C49.8503 20.4599 50.2292 24.6318 49.556 28.7149C48.9877 32.1653 47.6817 35.4624 45.7349 38.3928L45.7389 38.3847ZM31.7441 41.5973L19.41 34.0557V34.0638C18.104 33.2495 16.9915 32.1612 16.1571 30.8714C15.2946 29.5372 14.7464 28.0257 14.5529 26.4496C14.3635 24.8736 14.5327 23.2734 15.0527 21.7699C15.5727 20.2665 16.4272 18.9041 17.5518 17.7835C18.6764 16.663 20.0428 15.8125 21.5422 15.2965C23.0457 14.7806 24.6459 14.6153 26.222 14.8088C27.798 15.0023 29.3095 15.5545 30.6397 16.4211C31.6474 17.0741 32.5301 17.8964 33.2556 18.8476C32.3003 20.5526 32.8566 22.7212 34.5374 23.7571C36.2626 24.8172 38.5158 24.2771 39.5759 22.5519C40.636 20.8267 40.0958 18.5735 38.3707 17.5134C37.8346 17.1829 37.2461 17.0096 36.6616 16.9774C36.1578 16.2599 35.5935 15.5908 34.9727 14.9821C34.2956 14.313 33.5499 13.7165 32.7437 13.1925C30.9218 12.0074 28.854 11.2537 26.6976 10.9836C24.5411 10.7176 22.3524 10.9433 20.2967 11.6487C18.241 12.3541 16.3708 13.519 14.8351 15.0547C13.2953 16.5904 12.1264 18.4566 11.417 20.5083C10.7075 22.564 10.4738 24.7527 10.7358 26.9092C10.9978 29.0656 11.7475 31.1374 12.9285 32.9634C13.4485 33.7695 14.0491 34.5152 14.7141 35.1964C15.5162 36.0187 16.4191 36.7402 17.4026 37.3488L17.3946 37.365L18.1967 37.8567V37.8648L30.5268 45.4063V45.3983C31.8328 46.2125 32.9453 47.3008 33.7796 48.5906C34.6422 49.9248 35.1904 51.4363 35.3839 53.0124C35.5733 54.5884 35.404 56.1886 34.8841 57.6921C34.3641 59.1915 33.5096 60.558 32.385 61.6785C31.2604 62.7991 29.894 63.6536 28.3945 64.1655C26.8911 64.6814 25.2908 64.8467 23.7148 64.6532C22.1388 64.4597 20.6273 63.9075 19.2971 63.0409C18.3136 62.4 17.447 61.6019 16.7295 60.6789C17.7332 58.9658 17.189 56.7529 15.488 55.709C13.7629 54.6489 11.5097 55.189 10.4496 56.9141C9.38949 58.6393 9.92961 60.8925 11.6548 61.9526C12.1627 62.263 12.7189 62.4363 13.2751 62.4847C13.779 63.2021 14.3473 63.8753 14.9681 64.488C15.6452 65.1571 16.3909 65.7536 17.1971 66.2776C19.019 67.4627 21.0868 68.2164 23.2432 68.4865C25.3997 68.7525 27.5884 68.5268 29.6441 67.8214C31.6998 67.116 33.57 65.9511 35.1058 64.4154C36.6455 62.8797 37.8144 61.0134 38.5238 58.9618C39.2333 56.9061 39.467 54.7174 39.205 52.5609C38.943 50.4045 38.1933 48.3327 37.0123 46.5107C36.4923 45.7046 35.8918 44.9589 35.2267 44.2777C34.4246 43.4554 33.5217 42.7339 32.5382 42.1253L32.5462 42.1092L31.7441 41.6174V41.6093V41.5973ZM6.01574 40.2953C5.32648 40.1865 4.60901 40.4525 4.19384 41.0773C2.24698 44.0036 0.945043 47.3048 0.372675 50.7551C-0.300463 54.8423 0.0784291 59.0101 1.4771 62.8756C2.87578 66.7411 5.24587 70.1834 8.37374 72.876C11.5016 75.5685 15.2784 77.4307 19.3616 78.2893C23.4448 79.1478 27.6972 78.9705 31.732 77.7814C35.7628 76.5923 39.4429 74.4197 42.4337 71.4773C45.4205 68.5308 47.6213 64.9031 48.8265 60.9288C49.8342 57.6115 50.1244 54.141 49.685 50.7471C49.5399 49.6346 48.4476 48.9413 47.3512 49.1912C46.271 49.4371 45.6019 50.5052 45.7268 51.6056C46.0452 54.3627 45.7913 57.1681 44.9731 59.8566C43.9613 63.19 42.1193 66.2292 39.6121 68.7001C37.105 71.171 34.0215 72.9888 30.6397 73.9885C27.2579 74.9881 23.6906 75.1332 20.2685 74.4157C16.8464 73.6982 13.6782 72.1343 11.0542 69.8771C8.4342 67.6158 6.443 64.7338 5.27005 61.4931C4.0971 58.2524 3.77867 54.7537 4.34298 51.3275C4.72187 49.0259 5.49174 46.805 6.61229 44.7574L21.8486 55.2777C21.7478 56.6038 22.3766 57.9339 23.5858 58.6756C25.311 59.7357 27.5642 59.1956 28.6243 57.4704C29.6844 55.7452 29.1443 53.492 27.4191 52.4319C26.2945 51.7427 24.9402 51.7306 23.8438 52.2868L6.94282 40.6178C6.65663 40.4203 6.33417 40.3195 6.01171 40.3034L6.01574 40.2953Z" fill="black"/>
</svg>
